<svg width="102" height="116" viewBox="0 0 102 116" fill="none" xmlns="http://www.w3.org/2000/svg">
<path d="M34.0695 79.1842C34.2824 79.7566 34.5282 80.3175 34.8058 80.8643V80.8657C35.0307 81.3108 35.2751 81.7447 35.5392 82.1672H66.339V82.2255C66.6184 81.7845 66.8752 81.3303 67.1097 80.863C67.3879 80.3168 67.6337 79.7564 67.846 79.1842H34.0695ZM34.8459 80.8467V80.5753H67.0739V80.8467H34.8459ZM37.2466 84.4485H64.6688C65.2313 83.8149 65.744 83.1431 66.203 82.4386H35.7125C36.1714 83.1431 36.6842 83.8149 37.2466 84.4485Z" fill="#3F3D56"/>
<path d="M68.3274 77.6616C68.2171 78.0863 68.0881 78.503 67.9435 78.9128H33.9722C33.8276 78.503 33.6986 78.0863 33.5883 77.6616H68.3274Z" fill="#3F3D56"/>
<path d="M68.3488 77.5815V77.3902H33.5668V77.5815C33.445 77.1092 33.3443 76.6284 33.2646 76.1389H68.651C68.5722 76.6275 68.4715 77.1083 68.3488 77.5815Z" fill="#3F3D56"/>
<path d="M33.2015 74.3447V74.6162H68.8243C68.7971 75.0382 68.7541 75.4549 68.6925 75.8674H33.223C33.1628 75.4576 33.1184 75.0423 33.0926 74.6216C33.0669 74.266 33.0554 73.9078 33.0554 73.5454C33.0554 73.3011 33.0611 73.0582 33.0711 72.8166V72.8139C33.0955 72.2996 33.1423 71.792 33.2115 71.2912V71.2899C33.2717 70.8705 33.3466 70.4561 33.4364 70.0467H68.4218V69.7997C68.5393 70.291 68.6328 70.7904 68.7026 71.298H33.2745V71.5694H68.7384C68.7856 71.9481 68.8191 72.3299 68.8386 72.7148L68.8429 72.8207H33.2387V73.0921H68.853C68.8587 73.2428 68.8601 73.3934 68.8601 73.5454C68.8601 73.8141 68.853 74.0801 68.8401 74.3447H33.2015Z" fill="#3F3D56"/>
<path d="M68.416 69.7753H33.4994C33.6011 69.3519 33.719 68.9348 33.8532 68.5241H68.0565V68.5091C68.194 68.9244 68.3129 69.3465 68.416 69.7753Z" fill="#3F3D56"/>
<path d="M67.9705 68.2526H33.9449C34.1225 67.7369 34.3254 67.233 34.5536 66.7408V67H67.3617V66.7422C67.5895 67.2334 67.7924 67.7369 67.9705 68.2526Z" fill="#3F3D56"/>
<path d="M67.3546 66.7287H34.5594C34.757 66.3025 34.9733 65.8854 35.2082 65.4774H66.6684V65.4095C66.9177 65.8384 67.1464 66.2781 67.3546 66.7287Z" fill="#3F3D56"/>
<path d="M66.5482 65.2059H35.3659C36.9258 62.5893 39.1913 60.4122 41.9307 58.8973C44.6701 57.3824 47.7851 56.5842 50.957 56.5842C54.1289 56.5842 57.2439 57.3824 59.9833 58.8973C62.7227 60.4122 64.9883 62.5893 66.5482 65.2059Z" fill="#3F3D56"/>
<path opacity="0.5" d="M33.5668 77.5815C33.5725 77.6085 33.5798 77.6353 33.5887 77.6616H33.5668V77.5815Z" fill="black"/>
<path opacity="0.5" d="M68.3492 77.5815V77.6616H68.3273C68.3361 77.6353 68.3434 77.6085 68.3492 77.5815Z" fill="black"/>
<path opacity="0.5" d="M68.8608 74.3448V74.6162H68.8243C68.8272 74.5823 68.8301 74.5484 68.8316 74.5144C68.8345 74.4574 68.8374 74.4018 68.8403 74.3448H68.8608Z" fill="black"/>
<path opacity="0.5" d="M68.8605 72.8207V73.0922H68.8532C68.8517 73.0012 68.8474 72.9117 68.843 72.8207H68.8605Z" fill="black"/>
<path opacity="0.5" d="M68.4221 69.7754V69.802C68.4206 69.7931 68.4175 69.7843 68.416 69.7754H68.4221Z" fill="black"/>
<path opacity="0.5" d="M34.5537 66.7286H34.5599C34.5585 66.7336 34.5564 66.7383 34.5537 66.7427V66.7286Z" fill="black"/>
<path opacity="0.5" d="M67.3624 66.7286V66.7433C67.3601 66.7382 67.3575 66.7333 67.3546 66.7286H67.3624Z" fill="black"/>
<path opacity="0.5" d="M65.5353 63.6829H36.38V63.9543H65.5353V63.6829Z" fill="black"/>
<path opacity="0.5" d="M64.4027 62.1598H37.5858V62.4312H64.4027V62.1598Z" fill="black"/>
<path opacity="0.5" d="M62.6857 60.6368H39.23V60.9082H62.6857V60.6368Z" fill="black"/>
<path opacity="0.5" d="M60.5297 59.1129L41.0198 59.149L41.0203 59.4205L60.5303 59.3844L60.5297 59.1129Z" fill="black"/>
<path d="M48.362 64.6332H39.8127V82.5808H48.362V64.6332Z" fill="#E6E6E6"/>
<path d="M43.7237 66.3231H44.0856C44.619 66.3231 45.1305 66.5238 45.5077 66.8812C45.8849 67.2385 46.0968 67.7232 46.0968 68.2285V70.9265H41.7125V68.2285C41.7125 67.7232 41.9244 67.2385 42.3016 66.8812C42.6787 66.5238 43.1903 66.3231 43.7237 66.3231Z" fill="#3F3D56"/>
<path d="M59.3609 64.4762C59.9423 64.4762 60.4998 64.695 60.911 65.0845C61.3221 65.474 61.553 66.0023 61.553 66.5531V69.9454H57.1688V66.5531C57.1688 66.0023 57.3997 65.474 57.8108 65.0845C58.2219 64.695 58.7795 64.4762 59.3609 64.4762Z" fill="#E6E6E6"/>
<path d="M67.691 71.3992C67.6911 71.5611 67.6816 71.7229 67.6625 71.8838H50.9578V70.9838H67.6698C67.6837 71.1216 67.6908 71.26 67.691 71.3992Z" fill="#E6E6E6"/>
<path d="M53.3549 68.3611L53.5173 68.1233C53.4692 67.9973 53.4135 67.8739 53.3507 67.7538L53.2457 67.8342L53.3289 67.7124C53.2496 67.5647 53.1873 67.4716 53.1873 67.4716C52.9872 67.7812 52.8406 68.1192 52.7528 68.4726L52.9612 68.7777L52.7305 68.6012C52.7223 68.6612 52.718 68.7216 52.7178 68.782C52.7178 69.3917 52.928 69.886 53.1873 69.886C53.4465 69.886 53.6567 69.3917 53.6567 68.782C53.6518 68.5881 53.6156 68.3959 53.5493 68.2123L53.3549 68.3611Z" fill="#39AAA0"/>
<path d="M54.5044 68.8896L54.7966 68.8303C54.8567 68.7089 54.9094 68.5844 54.9546 68.4574L54.8204 68.4439L54.97 68.4135C55.0243 68.2559 55.0497 68.1483 55.0497 68.1483C54.6771 68.2333 54.3212 68.374 53.9954 68.5651L53.915 68.9204L53.8836 68.6411C53.833 68.678 53.785 68.7178 53.7397 68.7605C53.2846 69.1916 53.0644 69.6819 53.2477 69.8556C53.431 70.0293 53.9485 69.8206 54.4036 69.3895C54.5449 69.249 54.6627 69.0889 54.7528 68.9147L54.5044 68.8896Z" fill="#39AAA0"/>
<path d="M54.6111 71.2489C53.9333 71.29 53.1948 71.2465 52.4092 71.2489V69.5447C53.1396 69.6416 53.8807 69.6416 54.6111 69.5447V71.2489Z" fill="#E6E6E6"/>
<path d="M64.3887 68.3611L64.5511 68.1233C64.5029 67.9973 64.4473 67.8739 64.3845 67.7538L64.2795 67.8342L64.3626 67.7124C64.2834 67.5647 64.221 67.4716 64.221 67.4716C64.021 67.7812 63.8743 68.1192 63.7865 68.4726L63.9949 68.7777L63.7642 68.6012C63.756 68.6612 63.7518 68.7216 63.7516 68.782C63.7516 69.3917 63.9618 69.886 64.221 69.886C64.4803 69.886 64.6905 69.3917 64.6905 68.782C64.6856 68.5881 64.6494 68.3959 64.5831 68.2123L64.3887 68.3611Z" fill="#39AAA0"/>
<path d="M65.538 68.8896L65.8303 68.8303C65.8903 68.7089 65.943 68.5844 65.9882 68.4574L65.854 68.4439L66.0036 68.4135C66.0579 68.2559 66.0833 68.1483 66.0833 68.1483C65.7107 68.2333 65.3548 68.374 65.029 68.5651L64.9486 68.9204L64.9172 68.6411C64.8666 68.678 64.8186 68.7178 64.7733 68.7605C64.3182 69.1916 64.098 69.6819 64.2813 69.8556C64.4646 70.0293 64.9821 69.8206 65.4372 69.3895C65.5785 69.249 65.6963 69.0889 65.7864 68.9147L65.538 68.8896Z" fill="#39AAA0"/>
<path d="M65.6447 71.2489C64.9669 71.29 64.2284 71.2465 63.4428 71.2489V69.5447C64.1732 69.6416 64.9143 69.6416 65.6447 69.5447V71.2489Z" fill="#E6E6E6"/>
<path d="M40.8357 74.8308C41.32 74.8308 41.7126 74.5177 41.7126 74.1315C41.7126 73.7453 41.32 73.4323 40.8357 73.4323C40.3514 73.4323 39.9589 73.7453 39.9589 74.1315C39.9589 74.5177 40.3514 74.8308 40.8357 74.8308Z" fill="#3F3D56"/>
<path d="M92.5281 95.1412C83.3591 107.548 68.1598 115.661 50.9607 115.661C33.5554 115.661 18.1984 107.353 9.06677 94.6934C16.9307 80.5319 32.8979 84.04 50.9607 84.04C69.2126 84.04 84.7472 80.7368 92.5281 95.1412Z" fill="#39AAA0"/>
<path d="M50.9607 87.4328C68.3226 87.4328 83.2252 84.4451 91.3346 96.5521C91.7427 96.0442 92.1405 95.5287 92.528 95.0055C84.7472 80.6011 69.2126 83.9043 50.9607 83.9043C32.8979 83.9043 16.9307 80.3961 9.06677 94.5577C9.45553 95.0966 9.85576 95.6273 10.2675 96.1498C18.4843 84.2577 33.7736 87.4328 50.9607 87.4328Z" fill="#3F3D56"/>
<path d="M50.9606 116C38.5118 115.991 26.4963 111.668 17.1786 103.846C7.86101 96.0248 1.8847 85.2444 0.376026 73.5369C-1.13265 61.8293 1.93049 50.0033 8.98818 40.2875C16.0459 30.5717 26.6107 23.637 38.6915 20.7905C50.7724 17.944 63.535 19.3822 74.5742 24.834C85.6133 30.2858 94.1665 39.3748 98.6219 50.388C103.077 61.4012 103.127 73.578 98.762 84.6237C94.3969 95.6693 85.9184 104.821 74.9243 110.354C67.5439 114.064 59.3157 116.003 50.9606 116ZM50.9606 19.6447C43.2709 19.648 35.6829 21.3106 28.7724 24.5064C21.862 27.7021 15.8105 32.3471 11.0771 38.0888C6.34377 43.8305 3.05286 50.5183 1.4541 57.6446C-0.144674 64.7709 -0.00931394 72.1486 1.84991 79.2179C3.70912 86.2873 7.24336 92.8626 12.1845 98.445C17.1256 104.027 23.3438 108.47 30.3674 111.437C37.3909 114.403 45.0353 115.815 52.7205 115.565C60.4057 115.315 67.9299 113.41 74.7223 109.994C81.7891 106.418 87.8686 101.316 92.4694 95.1017C97.3723 88.4463 100.416 80.7227 101.316 72.6515C102.216 64.5804 100.943 56.4247 97.617 48.9455C93.7463 40.2538 87.2547 32.8374 78.9553 27.6253C70.6559 22.4131 60.9177 19.6371 50.9606 19.6447Z" fill="#3F3D56"/>
<path d="M50.9606 115.729C44.2917 115.73 37.6879 114.487 31.5264 112.069C25.3649 109.652 19.7664 106.108 15.0508 101.641C10.3353 97.1731 6.59495 91.8689 4.0436 86.0313C1.49224 80.1937 0.179841 73.937 0.181367 67.6188C0.181367 41.091 22.9608 19.509 50.9606 19.509C78.9603 19.509 101.74 41.091 101.74 67.6188C101.763 77.4807 98.5654 87.1078 92.5864 95.1806C87.9 101.521 81.6703 106.699 74.4247 110.276C67.1791 113.852 59.1307 115.723 50.9606 115.729ZM50.9606 19.9162C23.1978 19.9162 0.611093 41.3155 0.611093 67.6188C0.611901 77.7674 4.0287 87.6514 10.3649 95.8342C16.7011 104.017 25.6265 110.072 35.8439 113.12C46.0613 116.167 57.0383 116.048 67.1794 112.78C77.3206 109.512 86.0975 103.265 92.2345 94.9471C98.1627 86.9427 101.333 77.3971 101.31 67.6188C101.31 41.3155 78.7233 19.9162 50.9606 19.9162Z" fill="#3F3D56"/>
<path d="M76.4935 44.9032C89.5102 44.9032 100.062 34.8513 100.062 22.4516C100.062 10.0519 89.5102 0 76.4935 0C63.4768 0 52.9247 10.0519 52.9247 22.4516C52.9247 34.8513 63.4768 44.9032 76.4935 44.9032Z" fill="#FF6584"/>
<path opacity="0.2" d="M94.0066 8.30389C96.1911 13.1453 96.4875 18.565 94.8427 23.5944C93.1978 28.6238 89.719 32.9353 85.0279 35.7583C80.3367 38.5813 74.7389 39.7319 69.2347 39.0046C63.7305 38.2773 58.6787 35.7194 54.9818 31.7879C56.3163 34.7459 58.3136 37.3935 60.8354 39.5475C63.3572 41.7015 66.343 43.3103 69.5862 44.2625C72.8294 45.2146 76.2522 45.4873 79.6177 45.0618C82.9832 44.6362 86.2107 43.5224 89.0767 41.7977C91.9428 40.073 94.3788 37.7786 96.216 35.0734C98.0531 32.3681 99.2476 29.3168 99.7165 26.1308C100.185 22.9449 99.9176 19.7004 98.9317 16.6222C97.9458 13.544 96.2652 10.7057 94.0066 8.30389Z" fill="black"/>
<path d="M76.6496 23.1243H76.7139L77.872 86.0334H75.4271L76.6496 23.1243Z" fill="#3F3D56"/>
<path d="M80.914 57.3906L80.3745 56.4197L76.503 58.3507L77.0426 59.3217L80.914 57.3906Z" fill="#3F3D56"/>
<path d="M72.8112 83.3089C72.8112 83.3089 72.9101 81.3452 74.9379 81.5734L72.8112 83.3089Z" fill="#3F3D56"/>
<path d="M72.2383 81.4402C72.7988 81.4402 73.2532 81.0097 73.2532 80.4786C73.2532 79.9476 72.7988 79.5171 72.2383 79.5171C71.6778 79.5171 71.2234 79.9476 71.2234 80.4786C71.2234 81.0097 71.6778 81.4402 72.2383 81.4402Z" fill="#39AAA0"/>
<path d="M72.3596 82.0978H72.0732V83.9978H72.3596V82.0978Z" fill="#3F3D56"/>
<path d="M86.1328 86.9731C86.1328 86.9731 86.2317 85.0094 88.2595 85.2376L86.1328 86.9731Z" fill="#3F3D56"/>
<path d="M85.5599 85.1044C86.1204 85.1044 86.5748 84.6739 86.5748 84.1428C86.5748 83.6118 86.1204 83.1813 85.5599 83.1813C84.9994 83.1813 84.545 83.6118 84.545 84.1428C84.545 84.6739 84.9994 85.1044 85.5599 85.1044Z" fill="#39AAA0"/>
<path d="M85.6811 85.762H85.3947V87.662H85.6811V85.762Z" fill="#3F3D56"/>
<path d="M14.9415 87.7874C14.9415 87.7874 15.0404 85.8237 17.0682 86.0519L14.9415 87.7874Z" fill="#3F3D56"/>
<path d="M14.3686 85.9186C14.9291 85.9186 15.3835 85.4881 15.3835 84.9571C15.3835 84.426 14.9291 83.9955 14.3686 83.9955C13.8081 83.9955 13.3537 84.426 13.3537 84.9571C13.3537 85.4881 13.8081 85.9186 14.3686 85.9186Z" fill="#39AAA0"/>
<path d="M14.49 86.5763H14.2035V88.4763H14.49V86.5763Z" fill="#3F3D56"/>
<path d="M80.8329 84.666C80.8329 84.666 80.9318 82.7023 82.9596 82.9305L80.8329 84.666Z" fill="#3F3D56"/>
<path d="M80.2599 82.7973C80.8204 82.7973 81.2748 82.3668 81.2748 81.8357C81.2748 81.3046 80.8204 80.8741 80.2599 80.8741C79.6994 80.8741 79.245 81.3046 79.245 81.8357C79.245 82.3668 79.6994 82.7973 80.2599 82.7973Z" fill="#39AAA0"/>
<path d="M80.3811 83.455H80.0947V85.3549H80.3811V83.455Z" fill="#3F3D56"/>
<path d="M25.9198 29.3692L27.2385 28.37C26.2141 28.2629 25.7932 28.7922 25.6209 29.2111C24.8206 28.8963 23.9494 29.3089 23.9494 29.3089L26.5878 30.2164C26.4547 29.8796 26.223 29.5857 25.9198 29.3692Z" fill="#3F3D56"/>
<path d="M44.2766 38.5218L47.0326 36.512C44.8916 36.2967 44.0119 37.3613 43.6518 38.2039C41.9792 37.5707 40.1583 38.4006 40.1583 38.4006L45.6725 40.2258C45.3944 39.5484 44.9101 38.9573 44.2766 38.5218Z" fill="#3F3D56"/>
<path d="M27.3874 46.4317L29.356 44.9243C27.8267 44.7628 27.1983 45.5613 26.9412 46.1933C25.7464 45.7183 24.4458 46.3408 24.4458 46.3408L28.3845 47.7097C28.1858 47.2016 27.8399 46.7583 27.3874 46.4317Z" fill="#3F3D56"/>
<path d="M12.6524 47.9601L16.5896 44.9454C13.531 44.6224 12.2743 46.2193 11.7599 47.4833C9.37048 46.5334 6.76923 47.7783 6.76923 47.7783L14.6467 50.5161C14.2493 49.4999 13.5575 48.6133 12.6524 47.9601Z" fill="#3F3D56"/>
<path opacity="0.2" d="M68.7226 73.7259C68.7257 75.9093 68.2511 78.0696 67.3288 80.0705L37.6248 65.9673L35.3659 64.9047L38.427 64.7459L64.9568 63.3725C67.4821 66.1519 68.7226 69.7699 68.7226 73.7259Z" fill="black"/>
<path d="M72.3036 64.9047H29.6176V61.6476L50.8173 53.2335L72.3036 61.6476V64.9047Z" fill="#3F3D56"/>
</svg>
